<svg version="1.2" xmlns="http://www.w3.org/2000/svg" viewBox="0 0 42 42" width="42" height="42">
	<title>New Project</title>
	<defs>
		<filter x="-50%" y="-50%" width="200%" height="200%" id="f1" ><feDropShadow dx="-1.8369701987210297e-16" dy="3" stdDeviation="2.916666666666667" flood-color="#000000" flood-opacity=".2"/></filter>
	</defs>
	<style>
		.s0 { filter: url(#f1);fill: #b9cfdc } 
		.s1 { fill: none } 
		.s2 { fill: #5087a7 } 
	</style>
	<path id="Ellipse 115" class="s0" d="m21 42c-11.6 0-21-9.4-21-21 0-11.6 9.4-21 21-21 11.6 0 21 9.4 21 21 0 11.6-9.4 21-21 21z"/>
	<g id="report">
		<path id="Path 6456" class="s1" d="m24.6 15.3v-2.2l2.7 2.6h-2.2c-0.2 0-0.5-0.2-0.5-0.4z"/>
		<path id="Path 6457" fill-rule="evenodd" class="s1" d="m28.5 17.3v12.3c0 0.2-0.2 0.4-0.4 0.4h-14.1c-0.3 0-0.5-0.2-0.5-0.4v-17.2c0-0.2 0.2-0.4 0.5-0.4h9v3.3c0 1.1 0.9 2 2.1 2zm-12.2 3.3c-0.4 0-0.8 0.4-0.8 0.9 0 0.4 0.4 0.8 0.8 0.8h7.3c0.5 0 0.9-0.4 0.9-0.8 0-0.5-0.4-0.9-0.9-0.9zm-0.9-2.5c0 0.5 0.4 0.9 0.9 0.9h4.8c0.5 0 0.9-0.4 0.9-0.9 0-0.4-0.4-0.8-0.9-0.8h-4.8c-0.5 0-0.9 0.4-0.9 0.8zm11.1 6.7c0-0.5-0.3-0.8-0.8-0.8h-9.4c-0.4 0-0.8 0.3-0.8 0.8 0 0.4 0.4 0.8 0.8 0.8h9.4c0.5 0 0.8-0.4 0.8-0.8z"/>
		<path id="Path 6458" fill-rule="evenodd" class="s2" d="m30.1 16.7v12.9c0 1.1-0.9 2.1-2 2.1h-14.1c-1.2 0-2.1-1-2.1-2.1v-17.2c0-1.1 0.9-2.1 2.1-2.1l9.5 0.1c0.4 0 0.9 0.1 1.2 0.4l5 4.9c0.3 0.3 0.4 0.6 0.4 1zm-1.6 12.9v-12.3h-3.4c-1.2 0-2.1-0.9-2.1-2v-3.3h-9c-0.3 0-0.5 0.2-0.5 0.4v17.2c0 0.2 0.2 0.4 0.5 0.4h14.1c0.2 0 0.4-0.2 0.4-0.4zm-3.9-14.3c0 0.2 0.3 0.4 0.5 0.4h2.2l-2.7-2.6z"/>
		<path id="Path 6459" class="s2" d="m16.3 20.6h7.3c0.5 0 0.8 0.4 0.8 0.9 0 0.4-0.3 0.8-0.8 0.8h-7.3c-0.4 0-0.8-0.4-0.8-0.8 0-0.5 0.4-0.9 0.8-0.9zm-0.9-2.5c0-0.4 0.4-0.8 0.9-0.8h4.8c0.5 0 0.8 0.4 0.8 0.8 0 0.5-0.3 0.9-0.8 0.9h-4.8c-0.5 0-0.9-0.4-0.9-0.9zm11.1 6.7c0 0.4-0.4 0.8-0.8 0.8h-9.4c-0.4 0-0.8-0.4-0.8-0.8 0-0.5 0.4-0.8 0.8-0.8h9.4c0.4 0 0.8 0.3 0.8 0.8z"/>
	</g>
</svg>