<svg version="1.2" xmlns="http://www.w3.org/2000/svg" viewBox="0 0 38 42" width="38" height="42">
	<title>New Project</title>
	<style>
		.s0 { fill: #55565a } 
	</style>
	<path id="Path 4692" fill-rule="evenodd" class="s0" d="m37.7 13.4c0 1.3-1.1 2.4-2.4 2.4h-2.5c0.1 0.7 0.2 1.5 0.2 2.3v2.3h2.3c1.3 0 2.4 1.1 2.4 2.4 0 1.2-1.1 2.3-2.4 2.3h-2.3v2.3c0 0.8-0.1 1.6-0.2 2.3h2.5c1.3 0 2.4 1.1 2.4 2.4 0 1.3-1.1 2.3-2.4 2.3h-4.2c-2.4 4.2-6.9 7-12.1 7-5.2 0-9.7-2.8-12.1-7h-4.2c-1.3 0-2.4-1-2.4-2.3 0-1.3 1.1-2.4 2.4-2.4h2.5c-0.1-0.7-0.2-1.5-0.2-2.3v-2.3h-2.3c-1.3 0-2.4-1.1-2.4-2.3 0-1.3 1.1-2.4 2.4-2.4h2.3v-2.3c0-0.8 0.1-1.6 0.2-2.3h-2.5c-1.3 0-2.4-1.1-2.4-2.4 0-1.3 1.1-2.3 2.4-2.3h4.2c1-1.8 2.5-3.4 4.2-4.6l-2.1-2.1c-0.9-1-0.9-2.4 0-3.3 0.9-0.9 2.4-0.9 3.3 0l3.4 3.4q1.6-0.4 3.3-0.4 1.7 0 3.3 0.4l3.4-3.4c0.9-0.9 2.4-0.9 3.3 0 0.9 0.9 0.9 2.3 0 3.3l-2.1 2.1c1.7 1.2 3.2 2.8 4.2 4.6h4.2c1.3 0 2.4 1 2.4 2.3zm-14 14c0-1.3-1.1-2.3-2.4-2.3h-4.6c-1.3 0-2.4 1-2.4 2.3 0 1.3 1.1 2.3 2.4 2.3h4.6c1.3 0 2.4-1 2.4-2.3zm0-9.3c0-1.3-1.1-2.3-2.4-2.3h-4.6c-1.3 0-2.4 1-2.4 2.3 0 1.3 1.1 2.3 2.4 2.3h4.6c1.3 0 2.4-1 2.4-2.3z"/>
</svg>