<svg version="1.2" xmlns="http://www.w3.org/2000/svg" viewBox="0 0 56 54" width="56" height="54">
	<title>New Project</title>
	<defs>
		<filter x="-50%" y="-50%" width="200%" height="200%" id="f1" ><feDropShadow dx="-1.8369701987210297e-16" dy="3" stdDeviation="2.916666666666667" flood-color="#000000" flood-opacity=".2"/></filter>
	</defs>
	<style>
		.s0 { filter: url(#f1);fill: #d6e6de } 
		.s1 { fill: #32835b } 
	</style>
	<g id="Actual_icon">
		<path id="Ellipse 115" class="s0" d="m28 45c-11.6 0-21-9.4-21-21 0-11.6 9.4-21 21-21 11.6 0 21 9.4 21 21 0 11.6-9.4 21-21 21z"/>
	</g>
	<g id="Group 4479">
		<path id="Path 6473" fill-rule="evenodd" class="s1" d="m24 26.8c0 0.4 0 0.7 0 1h-6.6v1.5c0 0.6-0.4 1-0.9 1h-1.6c-0.6 0-1-0.4-1-1v-4.6q0-1.4 0.3-2.7h-0.3c-0.6 0-1-0.4-1-1v-0.5c0-0.5 0.4-1 1-1h1.2l0.8-2.4c0.4-1.2 1.5-2.1 2.9-2.1h6.9c1.4 0 2.5 0.8 2.9 2.1l0.2 0.4c-0.6 0.2-1.2 0.6-1.7 1.1l-0.3-0.9c-0.1-0.5-0.6-0.8-1.1-0.8h-6.9c-0.5 0-0.9 0.3-1.1 0.8l-0.9 2.8c-0.1 0.2 0 0.3 0.2 0.3h8.9l-0.3 1h-0.2c-1.3 0-2.5 1.1-2.5 2.4v0.6c0 0.8 0.5 1.6 1.1 2zm-4.6-2.3l-0.2-0.6c0-0.3-0.2-0.4-0.4-0.5l-1.9-0.3c-0.3 0-0.7 0.3-0.7 0.6v0.9c0 0.4 0.3 0.6 0.6 0.6h2c0.4 0 0.7-0.3 0.6-0.7z"/>
		<path id="Path 6474" fill-rule="evenodd" class="s1" d="m43.1 24.2v0.6c0 0.5-0.4 0.9-1 0.9h-0.3q0.3 1.4 0.3 2.7v4.6c0 0.6-0.4 1-1 1h-1.6c-0.5 0-0.9-0.4-0.9-1v-1.4h-9.6v1.4c0 0.6-0.5 1-1 1h-1.6c-0.5 0-0.9-0.4-0.9-1v-4.6q0-1.3 0.2-2.7h-0.3c-0.5 0-1-0.4-1-0.9v-0.6c0-0.5 0.5-0.9 1-0.9h1.2l0.8-2.5c0.4-1.2 1.6-2.1 2.9-2.1h6.9c1.4 0 2.5 0.9 2.9 2.1l0.8 2.5h1.2c0.6 0 1 0.4 1 0.9zm-14.6 0.3h10.6c0.1 0 0.2-0.1 0.2-0.2l-0.9-2.9c-0.2-0.5-0.6-0.8-1.1-0.8h-7c-0.5 0-0.9 0.3-1.1 0.8l-0.9 2.9c0 0.1 0 0.2 0.2 0.2zm2.4 3.7l-0.2-0.6c0-0.2-0.2-0.4-0.4-0.5l-1.9-0.2c-0.3-0.1-0.6 0.2-0.6 0.5v0.9c0 0.4 0.3 0.6 0.6 0.6h1.9c0.4 0 0.7-0.3 0.6-0.7zm8.8 0.2v-0.9c0-0.4-0.3-0.6-0.6-0.6l-1.9 0.3c-0.2 0-0.4 0.2-0.4 0.4l-0.2 0.7c-0.1 0.3 0.2 0.7 0.6 0.7h2c0.3 0 0.6-0.3 0.6-0.6z"/>
	</g>
</svg>