<svg version="1.2" xmlns="http://www.w3.org/2000/svg" viewBox="0 0 56 54" width="56" height="54">
	<title>New Project</title>
	<defs>
		<filter x="-50%" y="-50%" width="200%" height="200%" id="f1" ><feDropShadow dx="-1.8369701987210297e-16" dy="3" stdDeviation="2.916666666666667" flood-color="#000000" flood-opacity=".2"/></filter>
	</defs>
	<style>
		.s0 { filter: url(#f1);fill: #d6e6de } 
		.s1 { fill: #32835b } 
	</style>
	<g id="Actual_icon">
		<path id="Ellipse 115" class="s0" d="m28 45c-11.6 0-21-9.4-21-21 0-11.6 9.4-21 21-21 11.6 0 21 9.4 21 21 0 11.6-9.4 21-21 21z"/>
		<g id="Group 4177">
			<path id="Path 6313" fill-rule="evenodd" class="s1" d="m17.5 13.8h15.8v22.9h-15.8zm1.2 21.6h13.3v-20.4h-13.3z"/>
			<path id="Path 6314" fill-rule="evenodd" class="s1" d="m38.5 33.4l-1.8 3.2-1.8-3.2v-19.6h3.6zm-1.2-18.3h-1.1v17.9l0.5 1 0.6-1z"/>
			<path id="Path 6315" class="s1" d="m23.5 18.4l0.5-0.4 0.8 1-0.5 0.4-2.6 2.3-1.2-1.5-0.5-0.5 1-0.8 0.4 0.5 0.5 0.5z"/>
			<path id="Path 6316" class="s1" d="m23.5 23.8l0.5-0.4 0.8 0.9-0.5 0.5-2.6 2.2-1.2-1.4-0.5-0.5 1-0.8 0.4 0.4 0.5 0.5z"/>
			<path id="Path 6317" class="s1" d="m23.5 29.2l0.5-0.4 0.8 0.9-0.5 0.5-2.6 2.2-1.2-1.4-0.5-0.5 1-0.8 0.4 0.4 0.5 0.5z"/>
			<path id="Path 6318" class="s1" d="m29.5 18.3h0.7v1.3h-3.9v-1.3z"/>
			<path id="Path 6319" class="s1" d="m29.5 20.2h0.7v1.3h-3.9v-1.3z"/>
			<path id="Path 6320" class="s1" d="m29.5 23.4h0.7v1.3h-3.9v-1.3z"/>
			<path id="Path 6321" class="s1" d="m29.5 25.3h0.7v1.3h-3.9v-1.3z"/>
			<path id="Path 6322" class="s1" d="m29.5 30.2h0.7v1.3h-3.9v-1.3z"/>
		</g>
	</g>
</svg>