<svg version="1.2" xmlns="http://www.w3.org/2000/svg" viewBox="0 0 42 42" width="42" height="42">
	<title>New Project</title>
	<defs>
		<filter x="-50%" y="-50%" width="200%" height="200%" id="f1" ><feDropShadow dx="-1.8369701987210297e-16" dy="3" stdDeviation="2.916666666666667" flood-color="#000000" flood-opacity=".2"/></filter>
	</defs>
	<style>
		.s0 { filter: url(#f1);fill: #d6e6de } 
		.s1 { fill: #32835b } 
	</style>
	<path id="Ellipse 115" class="s0" d="m21 42c-11.6 0-21-9.4-21-21 0-11.6 9.4-21 21-21 11.6 0 21 9.4 21 21 0 11.6-9.4 21-21 21z"/>
	<path id="time" fill-rule="evenodd" class="s1" d="m31 20.5c0 5.8-4.7 10.5-10.5 10.5-5.8 0-10.5-4.7-10.5-10.5 0-5.8 4.7-10.5 10.5-10.5 5.8 0 10.5 4.7 10.5 10.5zm-19.1 0c0 4.8 3.9 8.6 8.6 8.6 4.8 0 8.6-3.8 8.6-8.6 0-4.8-3.8-8.6-8.6-8.6-4.7 0-8.6 3.8-8.6 8.6zm9.3-6.4q0.3 0.3 0.3 0.7v5.3l3.5 3.5c0.4 0.4 0.4 1 0 1.4-0.4 0.4-1 0.4-1.4 0l-3.8-3.8q-0.2-0.3-0.3-0.7v-5.7q0-0.4 0.3-0.7 0.3-0.3 0.7-0.3 0.4 0 0.7 0.3z"/>
</svg>