<svg version="1.2" xmlns="http://www.w3.org/2000/svg" viewBox="0 0 56 54" width="56" height="54">
	<title>New Project</title>
	<defs>
		<filter x="-50%" y="-50%" width="200%" height="200%" id="f1" ><feDropShadow dx="-1.8369701987210297e-16" dy="3" stdDeviation="2.916666666666667" flood-color="#000000" flood-opacity=".2"/></filter>
	</defs>
	<style>
		.s0 { filter: url(#f1);fill: #c6b8bf } 
		.s1 { fill: #704e5f } 
	</style>
	<g id="Customer_service_icon">
		<path id="Ellipse 107" class="s0" d="m28 45c-11.6 0-21-9.4-21-21 0-11.6 9.4-21 21-21 11.6 0 21 9.4 21 21 0 11.6-9.4 21-21 21z"/>
		<g id="Group 3550">
			<path id="Path 5691" class="s1" d="m22.2 18.8c0 2.2-1.7 3.9-3.8 3.9-2.1 0-3.8-1.7-3.8-3.9 0-2.1 1.7-3.8 3.8-3.8 2.1 0 3.8 1.7 3.8 3.8z"/>
			<path id="Path 5692" class="s1" d="m21.4 29l-0.4 2.9q-1.3 0.1-2.7 0.1-2.7 0-5.1-0.5c-0.5-0.1-0.7-0.5-0.7-0.9l0.4-3.3c0.2-2.1 2-3.6 4-3.6h2.9c1.4 0 2.7 0.8 3.4 1.9-0.9 0.9-1.6 2.1-1.8 3.4z"/>
			<path id="Path 5693" class="s1" d="m41.5 18.8c0 2.2-1.7 3.9-3.8 3.9-2.1 0-3.9-1.7-3.9-3.9 0-2.1 1.8-3.8 3.9-3.8 2.1 0 3.8 1.7 3.8 3.8z"/>
			<path id="Path 5694" class="s1" d="m35 31.9l-0.4-2.9c-0.1-1.3-0.8-2.5-1.8-3.4 0.7-1.1 2-1.9 3.4-1.9h2.9c2 0 3.7 1.5 4 3.5l0.4 3.3c0 0.5-0.2 0.9-0.7 1q-2.4 0.5-5.1 0.5-1.4 0-2.7-0.1z"/>
			<path id="Path 5695" class="s1" d="m33.5 29.2l0.3 3.3c0.1 0.4-0.2 0.8-0.6 0.9q-2.5 0.5-5.2 0.5-2.7 0-5.2-0.5c-0.4-0.1-0.6-0.5-0.6-0.9l0.4-3.3c0.2-2.1 1.9-3.6 4-3.6h2.8c2.1 0 3.8 1.5 4.1 3.6z"/>
			<path id="Path 5696" class="s1" d="m31.8 20.8c0 2.1-1.7 3.8-3.8 3.8-2.1 0-3.8-1.7-3.8-3.8 0-2.2 1.7-3.9 3.8-3.9 2.1 0 3.8 1.7 3.8 3.9z"/>
		</g>
	</g>
</svg>