<svg version="1.2" xmlns="http://www.w3.org/2000/svg" viewBox="0 0 47 40" width="47" height="40">
	<title>New Project</title>
	<style>
		.s0 { fill: #55565a } 
	</style>
	<g id="Layer 2">
		<path id="Path 4703" fill-rule="evenodd" class="s0" d="m46.8 11.5c0.1 0.3 0 0.6-0.2 0.8q-2.4 2.5-5.1 4.7 1.7 0.6 3.2 1c0.3 0.1 0.5 0.3 0.6 0.5 0.1 0.3 0 0.6-0.2 0.8q-2 2.1-4.2 3.9 1.1 0.4 2.3 0.7c0.2 0.1 0.4 0.3 0.5 0.6 0.1 0.2 0 0.5-0.2 0.7-6 6.3-13.3 11.2-21.3 14.5-0.3 0.1-0.6 0-0.8-0.1-8.2-6.4-15.4-14-21.3-22.6-0.1-0.3-0.1-0.6 0-0.9 0.2-0.2 0.5-0.4 0.8-0.3q2.3 0.3 4.6 0.3-2-2.4-3.8-5c-0.2-0.3-0.2-0.6 0-0.9 0.1-0.3 0.4-0.4 0.7-0.4q2.7 0.4 5.4 0.4-2.4-3-4.6-6.1c-0.1-0.3-0.2-0.6 0-0.9 0.2-0.3 0.5-0.4 0.8-0.4 6.4 1 13.6 0 20.7-2.7 0.2-0.1 0.5-0.1 0.7 0.1 7 5.3 14.2 9 20.9 10.8 0.2 0.1 0.5 0.3 0.5 0.5zm-7.3 12.9c-4.7 3.9-10.1 7.1-15.8 9.4-0.2 0.1-0.5 0-0.7-0.2-6.1-4.6-11.6-10-16.3-15.9q-2.2 0-4.3-0.2c5.5 7.8 12.1 14.7 19.6 20.6 7.3-3 13.9-7.5 19.5-13q-1-0.3-2-0.7zm0.6-6.3c-4.5 3.6-9.5 6.5-14.8 8.6-0.3 0.1-0.6 0.1-0.8-0.1-5.7-4.3-10.9-9.3-15.4-14.9q-2.6 0.1-5.1-0.1c5.5 7.8 12.1 14.7 19.6 20.5 7.3-3 13.9-7.4 19.5-13q-1.5-0.4-3-1zm4.5-6c-6.4-1.9-13.2-5.5-19.8-10.4-6.1 2.4-12.7 3.4-19.3 2.9 5.5 7.7 12.1 14.7 19.6 20.5 7.3-3 13.9-7.4 19.5-13z"/>
		<path id="Path 4704" fill-rule="evenodd" class="s0" d="m28.3 12.8c-3.3 1.6-6.8 2.8-10.4 3.6-0.3 0-0.5 0-0.7-0.2q-3.8-3.6-7.2-7.6c-0.2-0.2-0.2-0.5-0.1-0.8 0.1-0.2 0.4-0.4 0.7-0.4 3.3-0.2 6.7-0.8 9.9-1.7 0.3-0.1 0.5 0 0.7 0.1q3.5 3.1 7.3 5.7c0.2 0.1 0.3 0.4 0.3 0.7 0 0.2-0.2 0.5-0.5 0.6zm-1.9-0.8q-3-2.2-5.9-4.7-4 1.2-8.3 1.5 2.8 3.2 5.7 6 4.4-1.1 8.5-2.8z"/>
		<path id="Path 4705" class="s0" d="m20.7 8.3c1 0.5 0 1.5-0.3 2.1q1.6 0.3 3.1 0.4c0.5 0 0.8 0.4 0.8 0.8 0 0.4-0.4 0.7-0.8 0.7q-1.9-0.1-3.9-0.4c-0.5 0.6-0.6 1.9-1.6 2-0.2 0-0.5-0.1-0.6-0.4-0.2-0.2-0.2-0.5 0-0.7q0.3-0.6 0.6-1.2-1.6-0.3-3.2-0.7c-0.4-0.1-0.7-0.6-0.6-1 0.1-0.4 0.6-0.7 1-0.5q1.8 0.5 3.6 0.8 0.4-0.8 0.9-1.6c0.2-0.4 0.7-0.6 1-0.3zm3.7-2.1q1.2-0.5 2.4-1c0.4-0.2 0.9 0 1.1 0.4 0.1 0.4-0.1 0.8-0.4 1q-1.3 0.5-2.5 1c-0.4 0.2-0.9 0-1-0.4-0.2-0.4 0-0.9 0.4-1zm4.4 1.1c0.4-0.2 0.8-0.1 1 0.3 0.2 0.4 0.1 0.9-0.3 1.1-0.9 0.2-2.2 1.6-2.9 0.4-0.4-1.2 1.5-1.3 2.2-1.8zm0.8 2.6c0.6-0.3 1.6-1.3 2.2-0.3 0.2 0.3 0.1 0.8-0.3 1-0.7 0.3-1.7 1.3-2.3 0.3-0.2-0.4 0-0.8 0.4-1zm1.3 5.3q-4.5 2.3-9.3 3.8c-0.4 0.1-0.8-0.1-0.9-0.5-0.2-0.4 0.1-0.9 0.5-1q4.6-1.4 9-3.7c0.3-0.2 0.8-0.1 1 0.3 0.2 0.4 0.1 0.9-0.3 1.1zm1.6 1.8c0.2 0.4 0.1 0.8-0.3 1q-3.6 2-7.4 3.5c-0.4 0.2-0.8 0-1-0.4-0.1-0.4 0.1-0.9 0.5-1.1q3.7-1.4 7.1-3.3c0.4-0.2 0.9-0.1 1.1 0.3z"/>
	</g>
</svg>