<svg version="1.2" xmlns="http://www.w3.org/2000/svg" viewBox="0 0 41 35" width="41" height="35">
	<title>New Project</title>
	<style>
		.s0 { fill: #ffffff } 
	</style>
	<g id="Najm_logo_no_BG">
		<path id="Path 4673" fill-rule="evenodd" class="s0" d="m40.7 4.6q0 0.1 0 0.2v6.3q0 1.5-0.6 2.1-0.6 0.7-2 0.7h-5.7q-0.8 0-1.6-0.2c-0.5-0.2-0.9-0.6-1.1-1.1-0.3 0.5-0.7 0.9-1.2 1.1q-0.9 0.3-1.8 0.2h-9q-0.4 0-0.8 0-0.5 0-0.9-0.1-0.4-0.1-0.7-0.4-0.5-0.3-0.7-0.7-0.4 0.4-0.9 0.7c-0.8 0.5-1.7 0.7-2.7 0.7-0.9 0-1.9-0.2-2.7-0.7-0.7-0.4-1.3-1.1-1.6-1.9q-0.2-0.5-0.2-1.1-0.2-1.3 0-2.6 0-0.5 0.2-1 0.1-0.2 0.2-0.4h-3.3c-0.3 0-0.6 0.1-0.8 0.3-0.2 0.3-0.3 0.6-0.3 0.9v10.5q0 0.1 0 0.2-0.1 0-0.2 0h-2.1q-0.1 0-0.1 0-0.1-0.1-0.1-0.2v-11.1q0-1.4 0.6-2.1 0.6-0.7 2-0.7h8.4c1 0 1.9 0.2 2.7 0.7 0.8 0.4 1.3 1.1 1.6 1.9q0.2 0.5 0.3 1 0.1 0.7 0.1 1.3 0 0.5-0.1 0.9c0 0.5 0.2 0.9 0.5 1.3 0.2 0.2 0.6 0.4 0.9 0.4h8.7q0.4 0 0.9-0.1 0.3-0.1 0.6-0.3 0.2-0.3 0.2-0.6 0.1-0.5 0.1-0.9 0-0.7-0.1-1.3-0.1-0.6-0.4-1.1-0.4-0.5-0.9-0.7-0.6-0.3-1.3-0.3-0.7 0-1.3 0.3-0.6 0.3-1.1 0.8-0.1 0.1-0.2 0.1 0 0-0.1-0.1l-1.2-1.2q-0.2-0.2 0-0.3 0.7-0.8 1.6-1.3c0.8-0.4 1.6-0.5 2.4-0.5q1.3-0.1 2.5 0.4 1 0.5 1.7 1.3 0.6 0.8 0.8 1.8 0.3 1 0.3 2.1 0 0.2 0 0.3 0 0.1 0 0.3c0 0.4 0.2 0.7 0.5 0.9 0.4 0.3 0.9 0.4 1.3 0.4h5.1c0.3 0 0.6-0.1 0.8-0.3 0.2-0.3 0.3-0.6 0.3-0.9v-5.7q0-0.1 0.1-0.2 0 0 0.1 0h2.1q0.1 0 0.2 0zm-27.6 4.5q0-0.4 0-0.9-0.1-0.3-0.2-0.7-0.2-0.5-0.7-0.8-0.5-0.3-1.2-0.3-0.6 0-1.2 0.3-0.5 0.3-0.7 0.8-0.1 0.4-0.2 0.7 0 0.5 0 0.9 0 0.5 0 0.9 0.1 0.4 0.2 0.7 0.2 0.5 0.7 0.8 0.6 0.3 1.2 0.3 0.7 0 1.2-0.3 0.5-0.3 0.7-0.8 0.1-0.3 0.2-0.7 0-0.4 0-0.9z"/>
		<path id="Path 4674" class="s0" d="m40.7 0q0.1 0 0.1 0.1v2q0 0.1-0.1 0.2 0 0-0.1 0h-2.2q-0.1 0-0.1 0-0.1-0.1-0.1-0.2v-2q0-0.1 0.1-0.1 0-0.1 0.1-0.1h2.2q0.1 0 0.1 0.1z"/>
		<path id="Path 4675" class="s0" d="m23.3 15.5q0.1 0 0.1 0.1v2q0 0.1-0.1 0.2 0 0-0.1 0h-2.1q-0.1 0-0.2 0 0-0.1 0-0.2v-2q0-0.1 0-0.1 0.1-0.1 0.2-0.1h2.1q0.1 0 0.1 0.1z"/>
		<path id="Path 4676" class="s0" d="m6.9 30.9q-0.1 0-0.2 0-0.1-0.1-0.1-0.2v-6.2c0.1-0.7-0.1-1.3-0.5-1.8-0.3-0.4-0.9-0.7-1.5-0.6-0.6-0.1-1.2 0.2-1.5 0.6-0.4 0.5-0.6 1.1-0.6 1.8v6.2q0 0.1 0 0.2-0.1 0.1-0.2 0h-2.1q-0.1 0-0.1 0-0.1-0.1-0.1-0.2v-10.4q0-0.1 0.1-0.2 0 0 0.1 0h2.1q0.1 0 0.2 0 0 0.1 0 0.2v0.8q0.5-0.6 1.1-0.9 0.9-0.4 1.8-0.4 0.8 0 1.6 0.3 0.7 0.3 1.2 0.9 0.5 0.6 0.7 1.3 0.3 0.8 0.3 1.6v6.9q0 0.1-0.1 0.1-0.1 0.1-0.2 0.1z"/>
		<path id="Path 4677" fill-rule="evenodd" class="s0" d="m17.2 30.9q-0.1 0.1-0.2 0-0.1-0.1-0.1-0.2v-0.8q-0.4 0.7-1.1 0.9-0.9 0.4-1.9 0.4-0.8 0-1.4-0.2-0.7-0.2-1.2-0.6-0.5-0.4-0.8-1-0.3-0.7-0.3-1.5 0-1.8 1.2-2.6c0.9-0.6 2-0.9 3.2-0.8h2.2q0 0 0.1-0.1 0 0 0-0.1v-0.5c0.1-0.5-0.1-1-0.5-1.4q-0.5-0.4-1.9-0.4-0.8 0-1.5 0.2-0.5 0.2-1 0.5-0.2 0.2-0.3 0l-0.8-1.5q-0.1-0.1-0.1-0.2 0-0.1 0.1-0.1 0.7-0.5 1.6-0.8 1.1-0.3 2.3-0.3 2.4 0 3.5 0.9 1 0.9 1 2.9v7.1q0 0.1-0.1 0.2 0 0-0.1 0zm-2.7-1.8c0.6 0.1 1.2-0.1 1.8-0.4 0.4-0.3 0.6-0.9 0.6-1.4v-0.8q0-0.1 0-0.1-0.1-0.1-0.1-0.1h-1.8q-1 0-1.8 0.4c-0.4 0.2-0.6 0.7-0.6 1.1q0 1.3 1.9 1.3z"/>
		<path id="Path 4678" class="s0" d="m19.1 35q-0.1 0-0.2-0.1 0 0 0-0.1v-1.8q0-0.1 0.1-0.2 0-0.1 0.1-0.1h0.5c0.4 0.1 0.7 0 1-0.2 0.2-0.3 0.3-0.7 0.3-1v-11.2q0-0.1 0-0.2 0.1 0 0.2 0h2.1q0.1 0 0.1 0 0.1 0.1 0.1 0.2v11.1q0 1.9-0.9 2.7-1 0.9-2.7 0.9z"/>
		<path id="Path 4679" class="s0" d="m38.4 30.9q-0.1 0-0.1 0-0.1-0.1-0.1-0.2v-6.2c0-0.7-0.1-1.3-0.5-1.8-0.4-0.4-1-0.7-1.6-0.6-0.5 0-1.1 0.2-1.5 0.6-0.4 0.5-0.6 1.1-0.5 1.8v6.2q0 0.1-0.1 0.2-0.1 0.1-0.1 0h-2.1q-0.1 0.1-0.2 0 0-0.1 0-0.2v-6.2c0-0.7-0.2-1.3-0.6-1.8-0.3-0.4-0.9-0.7-1.5-0.6-0.6 0-1.1 0.2-1.5 0.6-0.4 0.5-0.6 1.1-0.5 1.8v6.2q0 0.1-0.1 0.2-0.1 0.1-0.2 0h-2.1q0 0.1-0.1 0-0.1-0.1-0.1-0.2v-10.4q0-0.1 0.1-0.2 0.1 0 0.1 0h2.1q0.1 0 0.2 0 0.1 0.1 0 0.2v0.8q0.5-0.6 1.1-0.9c1.1-0.5 2.4-0.5 3.5 0q0.8 0.4 1.3 1.1 0.6-0.7 1.5-1.1 0.9-0.4 2-0.4 0.8 0 1.6 0.3 0.8 0.3 1.3 0.9 0.5 0.6 0.7 1.3 0.3 0.8 0.3 1.6v6.9q0 0.1 0 0.1-0.1 0.1-0.2 0.1z"/>
	</g>
</svg>