<svg version="1.2" xmlns="http://www.w3.org/2000/svg" viewBox="0 0 21 20" width="21" height="20">
	<title>New Project</title>
	<style>
		.s0 { fill: #ebebeb;stroke: #707070 } 
		.s1 { fill: #55565a } 
	</style>
	<path id="Ellipse 119" class="s0" d="m10.5 20c-5.8 0-10.5-4.5-10.5-10 0-5.5 4.7-10 10.5-10 5.8 0 10.5 4.5 10.5 10 0 5.5-4.7 10-10.5 10z"/>
	<path id="expand" fill-rule="evenodd" class="s1" d="m14.6 6.6v1.9c0 0.2-0.2 0.3-0.4 0.3-0.2 0-0.3-0.1-0.3-0.3v-1l-2.2 2.2q-0.1 0.1-0.2 0.1-0.2 0-0.3-0.1c-0.1-0.2-0.1-0.4 0-0.6l2.1-2.1h-0.9c-0.2 0-0.4-0.2-0.4-0.4 0-0.2 0.2-0.4 0.4-0.4h1.8q0.2 0 0.3 0.2 0.1 0.1 0.1 0.2zm0 5.6v1.8q0 0.2-0.1 0.3-0.1 0.1-0.3 0.1h-1.9c-0.2 0-0.3-0.2-0.3-0.4 0-0.2 0.1-0.4 0.3-0.4h1l-2.1-2c-0.1-0.2-0.1-0.4 0-0.6 0.2-0.1 0.4-0.1 0.6 0l2.1 2.1v-0.9c0-0.2 0.1-0.4 0.3-0.4 0.2 0 0.4 0.2 0.4 0.4zm-4.8-1.2c0.2 0.2 0.2 0.4 0 0.5l-2.1 2.1h1c0.2 0 0.4 0.2 0.4 0.4 0 0.2-0.2 0.4-0.4 0.4h-1.9q-0.1 0-0.2-0.1-0.1-0.1-0.1-0.3v-1.8c0-0.2 0.1-0.4 0.3-0.4 0.2 0 0.4 0.2 0.4 0.4v0.9l2.1-2.1c0.2-0.1 0.4-0.1 0.5 0zm0.1-1.9c0.1 0.2 0.1 0.4 0 0.6q-0.2 0.1-0.3 0.1-0.1 0-0.3-0.1l-2.1-2.2v1c0 0.2-0.2 0.4-0.4 0.4-0.2 0-0.3-0.2-0.3-0.4v-1.9q0-0.1 0.1-0.2 0.1-0.1 0.2-0.1h1.9c0.2 0 0.4 0.1 0.4 0.3 0 0.3-0.2 0.4-0.4 0.4h-1z"/>
</svg>