<svg version="1.2" xmlns="http://www.w3.org/2000/svg" viewBox="0 0 48 48" width="48" height="48">
	<title>New Project</title>
	<style>
		.s0 { fill: #55565a } 
	</style>
	<path id="feedback" fill-rule="evenodd" class="s0" d="m48 24c0 13.3-10.8 24-24 24-13.2 0-24-10.7-24-24 0-13.2 10.8-24 24-24 13.2 0 24 10.8 24 24zm-47 0c0 12.7 10.3 23 23 23 12.7 0 23-10.3 23-23 0-12.7-10.3-23-23-23-12.7 0-23 10.3-23 23zm33.2-11.4c3.9 2.7 5.4 7.7 3.6 12l1.2 5.8c0 0.2 0 0.4-0.2 0.5-0.1 0.1-0.3 0.1-0.4 0.1l-5.2-1.5c-2.4 1.3-5.2 1.4-7.6 0.5q-0.5 1.3-1.3 2.4c-2.5 3.2-6.8 4.1-10.4 2.3l-4.3 1.3c-0.1 0-0.3 0-0.4-0.1-0.2-0.1-0.2-0.3-0.2-0.5l1-4.8c-1.5-3.7-0.3-8 3.1-10.2 1.7-1.1 3.6-1.6 5.6-1.3q0.2 0 0.4 0c0.4-1.8 1.2-3.5 2.5-5 1.7-1.7 3.8-2.8 6-3q0.5-0.1 0.9-0.1c2-0.1 4 0.5 5.7 1.6zm-11.8 2.2c-1.3 1.3-2 2.9-2.3 4.6 1.4 0.4 2.6 1.1 3.7 2.2q0.1 0.2 0.3 0.4h10.4c0.3 0 0.5 0.2 0.5 0.5 0 0.3-0.2 0.5-0.5 0.5h-9.7c1.1 1.8 1.5 4 1 6 2.3 0.9 4.9 0.7 7.1-0.5q0.1 0 0.3 0 0.1 0 0.1 0 0.1 0 0.1 0l4.4 1.3-1-5.1q0 0 0 0-0.1-0.2 0-0.3c1.8-3.9 0.4-8.5-3.1-10.9-1.6-1.1-3.4-1.6-5.2-1.5-2.3 0.1-4.5 1-6.1 2.8zm1.1 1.2h11c0.3 0 0.5 0.2 0.5 0.5 0 0.3-0.2 0.5-0.5 0.5h-11c-0.3 0-0.5-0.2-0.5-0.5 0-0.2 0.2-0.5 0.5-0.5q0 0 0 0zm0 3h11c0.3 0 0.5 0.2 0.5 0.5 0 0.3-0.2 0.5-0.5 0.5h-11c-0.3 0-0.5-0.2-0.5-0.5 0-0.2 0.2-0.5 0.5-0.5q0 0 0 0zm-9.9 2.2c-3 2-4.1 5.9-2.6 9.1q0.1 0.2 0 0.4 0 0 0 0l-0.8 4.1 3.6-1.1q0 0 0 0 0.2 0 0.4 0.1c3.2 1.7 7.1 0.8 9.3-2 2.2-2.8 2-6.8-0.5-9.5-1.3-1.4-3.2-2.2-5.1-2.3-1.5 0-3 0.4-4.3 1.2zm-0.1 2.8h9c0.3 0 0.5 0.2 0.5 0.5 0 0.3-0.2 0.5-0.5 0.5h-9c-0.3 0-0.5-0.2-0.5-0.5 0-0.2 0.2-0.5 0.5-0.5q0 0 0 0zm13.8 1h2.4c0.3 0 0.5 0.2 0.5 0.5 0 0.3-0.2 0.5-0.5 0.5h-2.4c-0.3 0-0.5-0.2-0.5-0.5 0-0.2 0.2-0.5 0.4-0.5q0.1 0 0.1 0zm-13.8 2h9c0.3 0 0.5 0.2 0.5 0.5 0 0.3-0.2 0.5-0.5 0.5h-9c-0.3 0-0.5-0.2-0.5-0.5 0-0.2 0.2-0.5 0.5-0.5q0 0 0 0zm0 3h4c0.3 0 0.5 0.2 0.5 0.5 0 0.3-0.2 0.5-0.5 0.5h-4c-0.3 0-0.5-0.2-0.5-0.5 0-0.2 0.2-0.5 0.5-0.5q0 0 0 0z"/>
</svg>