<svg version="1.2" xmlns="http://www.w3.org/2000/svg" viewBox="0 0 50 37" width="50" height="37">
	<title>New Project</title>
	<style>
		.s0 { fill: none } 
		.s1 { fill: #55565a } 
	</style>
	<g id="broadcast (1)">
		<path id="Rectangle 3833" class="s0" d="m-1-7.7h53v53h-53z"/>
		<path id="Ellipse 4" class="s1" d="m25 26.3c-4.4 0-8-3.6-8-8 0-4.4 3.6-8 8-8 4.4 0 8 3.6 8 8 0 4.4-3.6 8-8 8z"/>
		<path id="Path 4693" class="s1" d="m12 18.4c0 3.5 1.4 6.8 3.8 9.3 0.7 0.6 0.7 1.7 0 2.3-0.6 0.6-1.6 0.6-2.3 0-3.1-3.1-4.8-7.2-4.8-11.6 0-4.3 1.7-8.5 4.8-11.6 0.7-0.6 1.7-0.6 2.3 0 0.7 0.7 0.7 1.7 0 2.4-2.4 2.4-3.8 5.7-3.8 9.2zm24.7 11.6c-0.7 0.6-1.7 0.6-2.3 0-0.7-0.6-0.7-1.7 0-2.3 2.4-2.5 3.8-5.8 3.8-9.3 0-3.5-1.4-6.8-3.8-9.2-0.7-0.7-0.7-1.7 0-2.4 0.6-0.6 1.6-0.6 2.3 0 3.1 3.1 4.8 7.3 4.8 11.6 0 4.4-1.7 8.5-4.8 11.6z"/>
		<path id="Path 4694" class="s1" d="m10 33.5c0.7 0.6 0.7 1.7 0 2.3-0.6 0.6-1.6 0.6-2.3 0-4.6-4.6-7.2-10.9-7.2-17.4 0-6.5 2.6-12.8 7.2-17.4 0.7-0.6 1.7-0.6 2.3 0 0.7 0.7 0.7 1.7 0 2.4-6.1 6.1-7.9 15.3-4.5 23.3 1 2.5 2.6 4.8 4.5 6.8zm32.5 2.3c-0.7 0.6-1.7 0.6-2.3 0-0.7-0.6-0.7-1.7 0-2.3 4-4 6.2-9.4 6.2-15.1 0-5.6-2.2-11-6.2-15-0.7-0.7-0.7-1.7 0-2.4 0.6-0.6 1.6-0.6 2.3 0 2.2 2.3 4 4.9 5.2 7.9 3.9 9.2 1.8 19.8-5.2 26.9z"/>
	</g>
</svg>