<svg version="1.2" xmlns="http://www.w3.org/2000/svg" viewBox="0 0 387 46" width="387" height="46">
	<title>New Project</title>
	<style>
		.s0 { fill: #ffffff;stroke: #707070 } 
		.s1 { fill: #ce3e3e } 
		.s2 { fill: #d4bc3d } 
		.s3 { fill: #3c9d3a } 
		.s4 { fill: #3b3b3b } 
	</style>
	<path id="Rectangle 312" class="s0" d="m1 22.9c0-5.5 4.5-10 10-10h366c5.5 0 10 4.5 10 10 0 5.5-4.5 10-10 10h-366c-5.5 0-10-4.5-10-10z"/>
	<path id="Rectangle 313" class="s1" d="m258 12.9h119c5.5 0 10 4.5 10 10 0 5.5-4.5 10-10 10h-119z"/>
	<path id="Rectangle 314" class="s2" d="m129 12.9h129v20h-129z"/>
	<path id="Rectangle 315" class="s3" d="m0 22.9c0-5.5 4.5-10 10-10h119v20h-119c-5.5 0-10-4.5-10-10z"/>
	<g id="Group 4450">
		<path id="Ellipse 159" class="s4" d="m67.7-0.1c3.3-0.1 6 2.4 6.1 5.6 0.1 3.3-2.4 6-5.6 6.1-3.3 0.1-6-2.4-6.1-5.6-0.1-3.3 2.4-6 5.6-6.1z"/>
		<path id="Path 6323" class="s4" d="m70.3 12l-1.4 34-2.8-35.3 4.1-0.1z"/>
	</g>
</svg>