<svg version="1.2" xmlns="http://www.w3.org/2000/svg" viewBox="0 0 23 23" width="23" height="23">
	<title>New Project</title>
	<style>
		.s0 { fill: #32835b;stroke: #ffffff;stroke-width: 2 } 
	</style>
	<path id="Home_icon" class="s0" d="m8.5 20.7c0 0.7-0.5 1.3-1.2 1.3h-2c-2 0-3.6-1.6-3.6-3.5v-9c0.1-0.7 0.4-1.5 1-1.9l6.7-5.4c1.2-1 2.9-1 4.1-0.1l6.8 5.5c0.6 0.5 1 1.2 1 1.9v9c0 0.9-0.4 1.8-1.1 2.5-0.6 0.6-1.5 1-2.5 1h-2c-0.3 0-0.7-0.1-0.9-0.4-0.2-0.2-0.4-0.5-0.4-0.9v-3.1c0-0.4-0.1-0.8-0.4-1-0.3-0.3-0.6-0.5-1-0.5h-3c-0.8 0-1.4 0.7-1.4 1.5v3.1z"/>
</svg>