<svg version="1.2" xmlns="http://www.w3.org/2000/svg" viewBox="0 0 49 43" width="49" height="43">
	<title>New Project</title>
	<style>
		.s0 { fill: #55565a } 
	</style>
	<g id="keyword-suggestion">
		<path id="Path 4698" class="s0" d="m4.9 3.2c-0.9 0-1.7 0.6-2.1 1.4q-0.2 0.4-0.2 0.8 0 0.1 0 0.2v33.3h-1.2c-0.8 0-1.4-0.6-1.4-1.4v-34.7c0-1.2 1-2.1 2.1-2.1h35.4q0.1 0 0.3 0c0.4 0.1 0.7 0.5 0.7 1v1.5zm39.9 9.4c0.8-0.4 1.2-0.8 1.5-1.5 0.2-0.4 0.6-0.4 0.8 0 0.3 0.7 0.8 1.1 1.5 1.5 0.3 0.1 0.3 0.6 0 0.7-0.7 0.4-1.2 0.8-1.5 1.6-0.2 0.3-0.6 0.3-0.8 0-0.3-0.8-0.7-1.2-1.5-1.6-0.3-0.1-0.3-0.6 0-0.7z"/>
		<path id="Rectangle 3837" class="s0" d="m9.9 33.7h18.2v1.4h-18.2z"/>
		<path id="Rectangle 3838" class="s0" d="m17.6 36.6h18.4v1.3h-18.4z"/>
		<path id="Path 4699" fill-rule="evenodd" class="s0" d="m46.9 37.7l-4.5-4.8v8.5c0 0.8-0.6 1.4-1.4 1.4h-35.7c-0.7 0-1.4-0.6-1.4-1.4v-35.8c0-0.6 0.5-1 1-1h36.5q0.2 0 0.3 0c0.4 0.2 0.7 0.6 0.7 1v10c1.6 1.7 2.6 4 2.6 6.6q0 0.2-0.1 0.5 0 0 0 0.1 0 0.2 0 0.3 0 0.1 0 0.3 0 0.1-0.1 0.2 0 0.1 0 0.3 0 0.1 0 0.2-0.1 0.1-0.1 0.2 0 0.1 0 0.2-0.1 0.2-0.1 0.3 0 0.1-0.1 0.2 0 0.1-0.1 0.3 0 0 0 0.1-0.1 0.2-0.1 0.3 0 0.1-0.1 0.2 0 0.1-0.1 0.3 0 0-0.1 0.1 0 0.1-0.1 0.3 0 0-0.1 0.1 0 0.1-0.1 0.3-0.1 0-0.1 0.1-0.1 0.1-0.2 0.3 0 0 0 0.1-0.1 0.1-0.2 0.3 0 0-0.1 0-0.1 0.2-0.2 0.3 0 0.1 0 0.1-0.2 0.1-0.3 0.3 0 0 0 0-0.1 0.1-0.2 0.2v0.3l6.5 6.9zm-6.8-20.6c-1.2-1.3-3-2.1-5-2.1-3.8 0-7 3.2-7 7.1 0 3.9 3.2 7.1 7 7.1 2 0 3.8-0.8 5-2.1 1.3-1.3 2.1-3 2.1-5 0-1.9-0.8-3.7-2.1-5zm-13.7-9.5h13.1v-1.3h-13.1zm-14.6-0.7c0 0.4 0.3 0.7 0.6 0.7 0.4 0 0.7-0.3 0.7-0.7 0-0.4-0.3-0.7-0.7-0.7-0.3 0-0.6 0.3-0.6 0.7zm-2.7 0c0 0.4 0.3 0.7 0.7 0.7 0.4 0 0.7-0.3 0.7-0.7 0-0.4-0.3-0.7-0.7-0.7-0.4 0-0.7 0.3-0.7 0.7zm-2.6 0c0 0.4 0.3 0.7 0.6 0.7 0.4 0 0.7-0.3 0.7-0.7 0-0.4-0.3-0.7-0.7-0.7-0.3 0-0.6 0.3-0.6 0.7zm33.6 33.2v-9.6q-0.2 0.1-0.4 0.2-0.1 0-0.1 0.1-0.3 0.1-0.5 0.2-0.1 0-0.1 0-0.3 0.2-0.6 0.3 0 0 0 0-0.3 0.1-0.5 0.1-0.1 0.1-0.2 0.1-0.2 0.1-0.5 0.1 0 0-0.1 0-0.2 0.1-0.5 0.1-0.1 0-0.2 0-0.2 0.1-0.5 0.1-0.1 0-0.1 0-0.3 0-0.7 0c-5.3 0-9.7-4.4-9.7-9.8 0-5.4 4.4-9.7 9.7-9.7 1.9 0 3.6 0.5 5 1.3v-2.6c0-0.1-0.1-0.3-0.3-0.3h-33.3c-0.2 0-0.3 0.2-0.3 0.3v29.1c0 0.2 0.1 0.3 0.3 0.3h33.3c0.2 0 0.3-0.1 0.3-0.3z"/>
		<path id="Path 4700" class="s0" d="m9.6 23.2v-3.4c0-0.6 0.5-1.1 1.1-1.1h13.9q-0.6 1.6-0.6 3.5 0 1 0.2 2.1h-13.5c-0.6 0-1.1-0.5-1.1-1.1z"/>
		<path id="Rectangle 3839" class="s0" d="m30.2 33.7h5.9v1.3h-5.9z"/>
		<path id="Rectangle 3840" class="s0" d="m9.9 36.6h5.9v1.4h-5.9z"/>
	</g>
</svg>