<svg version="1.2" xmlns="http://www.w3.org/2000/svg" viewBox="0 0 549 190" width="549" height="190">
	<title>New Project</title>
	<style>
		tspan { white-space:pre } 
		.t0 { font-size: 12px;fill: #444444;font-family: "D IN Next LT Arabic" } 
		.s1 { fill: none;stroke: #d9d9d9 } 
		.s2 { fill: none;stroke: #707070 } 
		.t3 { font-size: 10px;fill: #444444;font-family: "D IN Next LT Arabic" } 
		.s4 { fill: #32835b } 
		.s5 { fill: #e6c068 } 
		.s6 { fill: #db6b2a } 
		.s7 { fill: #cb150c } 
	</style>
	<text id="0.4" style="transform: matrix(1,0,0,1,-0.118,138.488)" >
		<tspan x="0" y="0" class="t0">0.4
</tspan>
	</text>
	<text id="0.6" style="transform: matrix(1,0,0,1,-0.118,114.732)" >
		<tspan x="0" y="0" class="t0">0.6
</tspan>
	</text>
	<text id="1" style="transform: matrix(1,0,0,1,3.9,67.219)" >
		<tspan x="0" y="0" class="t0">1
</tspan>
	</text>
	<text id="1.2" style="transform: matrix(1,0,0,1,-0.118,43.219)" >
		<tspan x="0" y="0" class="t0">1.2
</tspan>
	</text>
	<text id="0.8" style="transform: matrix(1,0,0,1,-0.118,90.976)" >
		<tspan x="0" y="0" class="t0">0.8
</tspan>
	</text>
	<text id="0.2" style="transform: matrix(1,0,0,1,-0.118,162.244)" >
		<tspan x="0" y="0" class="t0">0.2
</tspan>
	</text>
	<text id="0" style="transform: matrix(1,0,0,1,9,186)" >
		<tspan x="0" y="0" class="t0">0
</tspan>
	</text>
	<path id="Line 21" class="s1" d="m547.3 110.9h-510.4"/>
	<path id="Line 24" class="s1" d="m547.3 86.9h-510.4"/>
	<path id="Line 25" class="s1" d="m547.3 62.9h-510.4"/>
	<path id="Line 26" class="s1" d="m547.3 38.8h-510.4"/>
	<path id="Line 22" class="s1" d="m548.2 135h-511"/>
	<path id="Line 23" class="s1" d="m548.2 159h-511"/>
	<path id="Path 6477" class="s2" d="m548.2 189h-502.9v-178"/>
	<text id="3 Days ago" style="transform: matrix(1,0,0,1,413.988,7.5)" >
		<tspan x="0" y="0" class="t3">3 Days ago
</tspan>
	</text>
	<text id="Case Count - Yesterday" style="transform: matrix(1,0,0,1,195.126,7.5)" >
		<tspan x="0" y="0" class="t3">Case Count - Yesterday
</tspan>
	</text>
	<text id="2 Days ago" style="transform: matrix(1,0,0,1,331.727,7.5)" >
		<tspan x="0" y="0" class="t3">2 Days ago
</tspan>
	</text>
	<text id="Case Count - Today" style="transform: matrix(1,0,0,1,77.715,7.5)" >
		<tspan x="0" y="0" class="t3">Case Count - Today
</tspan>
	</text>
	<path id="Rectangle 473" class="s4" d="m69.1 4.5c0-1.1 0.9-2 2-2h0.6c1.1 0 2.1 0.9 2.1 2 0 1.1-1 2.1-2.1 2.1h-0.6c-1.1 0-2-1-2-2.1z"/>
	<path id="Rectangle 474" class="s5" d="m184.2 4.5c0-1.1 0.9-2 2.1-2h0.6c1.1 0 2 0.9 2 2 0 1.1-0.9 2.1-2 2.1h-0.6c-1.2 0-2.1-1-2.1-2.1z"/>
	<path id="Rectangle 475" class="s6" d="m321.1 4.5c0-1.1 1-2 2.1-2h0.6c1.1 0 2 0.9 2 2 0 1.1-0.9 2.1-2 2.1h-0.6c-1.1 0-2.1-1-2.1-2.1z"/>
	<path id="Rectangle 476" class="s7" d="m401.7 4.5c0-1.1 0.9-2 2.1-2h0.6c1.1 0 2 0.9 2 2 0 1.1-0.9 2.1-2 2.1h-0.6c-1.2 0-2.1-1-2.1-2.1z"/>
</svg>