<svg version="1.2" xmlns="http://www.w3.org/2000/svg" viewBox="0 0 387 46" width="387" height="46">
	<title>New Project</title>
	<style>
		.s0 { fill: #ce3e3e } 
		.s1 { fill: #d4bc3d } 
		.s2 { fill: #3c9d3a } 
		.s3 { fill: #3b3b3b } 
	</style>
	<path id="Rectangle 309" class="s0" d="m258 13.4h119c5.5 0 10 4.5 10 10 0 5.6-4.5 10-10 10h-119z"/>
	<path id="Rectangle 310" class="s1" d="m129 13.4h129v20h-129z"/>
	<path id="Rectangle 311" class="s2" d="m0 23.4c0-5.5 4.5-10 10-10h119v20h-119c-5.5 0-10-4.4-10-10z"/>
	<path id="Ellipse 94" class="s3" d="m64.3 0.5c3.2-0.2 5.9 2.4 6 5.6 0.2 3.2-2.4 5.9-5.6 6.1-3.2 0.1-5.9-2.5-6-5.7-0.2-3.2 2.4-5.9 5.6-6z"/>
	<path id="Path 4710" class="s3" d="m66.9 12.6l-1.4 34-2.8-35.3 4.1-0.2z"/>
</svg>