<svg version="1.2" xmlns="http://www.w3.org/2000/svg" viewBox="0 0 54 46" width="54" height="46">
	<title>New Project</title>
	<style>
		.s0 { fill: #ffffff } 
	</style>
	<g id="Group 6">
		<path id="Path 4673" fill-rule="evenodd" class="s0" d="m53.8 6.2q0.1 0.1 0.1 0.2v8.3q-0.1 1.9-0.8 2.8-0.8 0.9-2.7 0.9h-7.4q-1.1 0-2.2-0.4c-0.6-0.2-1.1-0.7-1.4-1.4-0.3 0.7-0.9 1.2-1.5 1.4q-1.2 0.4-2.4 0.4h-11.8c-0.3 0-0.6-0.1-1-0.1q-0.6 0-1.1-0.1-0.5-0.2-1-0.5-0.6-0.4-0.9-0.9-0.5 0.5-1.1 0.9c-1.1 0.6-2.3 0.9-3.5 0.9-1.3 0-2.5-0.3-3.6-0.9-1-0.6-1.7-1.5-2.1-2.5q-0.2-0.7-0.3-1.4-0.2-1.7 0-3.4 0.1-0.7 0.3-1.4 0.1-0.2 0.2-0.4h-4.2c-0.4-0.1-0.8 0.1-1.1 0.3-0.3 0.4-0.4 0.8-0.3 1.2v13.7q0 0.1-0.1 0.2-0.1 0.1-0.2 0.1h-2.7q-0.2 0-0.3-0.1-0.1-0.1 0-0.2v-14.5q0-1.9 0.7-2.8 0.8-0.9 2.7-0.9h11c1.2 0 2.4 0.3 3.5 0.9 1 0.6 1.7 1.5 2 2.6q0.3 0.6 0.4 1.3 0.1 0.9 0.1 1.7 0 0.7 0 1.2c-0.1 0.6 0.2 1.2 0.6 1.6 0.3 0.3 0.7 0.5 1.2 0.5h11.3q0.6 0 1.2-0.1 0.5-0.1 0.8-0.4 0.2-0.3 0.3-0.8 0.1-0.6 0.1-1.2 0-0.8-0.2-1.7-0.1-0.7-0.5-1.4-0.5-0.6-1.1-0.9-0.8-0.4-1.7-0.3-0.9 0-1.8 0.4-0.8 0.3-1.4 1-0.1 0.1-0.2 0.1-0.1 0-0.2-0.1l-1.5-1.6q-0.3-0.2-0.1-0.4 1-1 2.2-1.7c1-0.5 2-0.7 3.1-0.7 1.1 0 2.2 0.2 3.3 0.6 0.8 0.4 1.5 1 2.1 1.7q0.8 1 1.1 2.3 0.4 1.4 0.4 2.8 0 0.2 0 0.4 0 0.2 0 0.3c0 0.5 0.3 1 0.7 1.3 0.5 0.3 1.1 0.4 1.7 0.4h6.6c0.4 0 0.8-0.1 1.1-0.3 0.3-0.4 0.4-0.8 0.4-1.2v-7.5q-0.1-0.1 0-0.2 0.1-0.1 0.2-0.1h2.8q0.1 0 0.2 0.1zm-36 5.9q0-0.6 0-1.2-0.1-0.4-0.3-0.9c-0.2-0.4-0.5-0.8-0.9-1.1-0.5-0.2-1-0.4-1.5-0.4q-0.9 0-1.6 0.4c-0.4 0.3-0.8 0.7-0.9 1.1q-0.2 0.5-0.3 0.9 0 0.6 0 1.2 0 0.6 0 1.2 0.1 0.4 0.3 0.9c0.1 0.4 0.5 0.8 0.9 1q0.7 0.4 1.6 0.4c0.5 0 1-0.1 1.5-0.4 0.4-0.2 0.7-0.6 0.9-1q0.2-0.5 0.3-0.9 0-0.6 0-1.2z"/>
		<path id="Path 4674" class="s0" d="m53.9 0.1q0.1 0.1 0 0.3v2.5q0.1 0.1 0 0.2-0.1 0.1-0.3 0.1h-2.8q-0.1 0-0.2-0.1-0.1-0.1-0.1-0.2v-2.6q0-0.1 0.1-0.2 0.1-0.1 0.2 0h2.8q0.2-0.1 0.3 0z"/>
		<path id="Path 4675" class="s0" d="m31.1 20.4q0.1 0.1 0.1 0.2v2.6q0 0.1-0.1 0.2 0 0.1-0.2 0.1h-2.7q-0.1 0-0.2-0.1-0.1-0.1-0.1-0.2v-2.6q0-0.1 0.1-0.2 0.1-0.1 0.2-0.1h2.7q0.2 0 0.2 0.1z"/>
		<path id="Path 4676" class="s0" d="m9.6 40.6q-0.1 0-0.2-0.1-0.1-0.1-0.1-0.2v-8.2c0.1-0.8-0.2-1.6-0.6-2.2-0.5-0.6-1.3-0.9-2-0.9-0.8 0-1.5 0.3-2 0.9-0.5 0.6-0.8 1.4-0.7 2.2v8.2q0 0.1-0.1 0.2-0.1 0.1-0.2 0.1h-2.7q-0.2 0-0.3-0.1-0.1-0.1 0-0.2v-13.6q-0.1-0.1 0-0.2 0.1-0.1 0.3-0.1h2.7q0.1 0 0.2 0.1 0.1 0.1 0.1 0.2v1q0.5-0.7 1.4-1.1c0.7-0.4 1.5-0.5 2.3-0.5q1.1 0 2.1 0.4 0.9 0.4 1.5 1.1 0.7 0.7 1 1.7 0.3 1 0.3 2.1v9q0 0.1 0 0.2-0.1 0.1-0.3 0z"/>
		<path id="Path 4677" fill-rule="evenodd" class="s0" d="m23.1 40.6q-0.1 0-0.2-0.1-0.1-0.1-0.1-0.2v-1c-0.4 0.5-0.9 0.9-1.5 1.2q-1.2 0.5-2.5 0.4-1 0-1.9-0.2-0.8-0.3-1.5-0.8-0.7-0.6-1-1.4-0.4-0.9-0.4-1.9 0-2.3 1.5-3.4c1.3-0.8 2.7-1.2 4.2-1.1h2.9q0 0 0.1 0 0-0.1 0-0.2v-0.6c0.1-0.7-0.1-1.4-0.6-1.9q-0.7-0.5-2.5-0.5-1-0.1-2 0.3-0.6 0.2-1.2 0.7-0.3 0.2-0.4-0.1l-1.1-2q-0.1 0-0.1-0.2 0-0.1 0.1-0.1 1-0.7 2.1-1.1 1.4-0.4 2.9-0.3 3.3 0 4.6 1.1 1.4 1.2 1.4 3.8v9.3q0 0.1-0.1 0.2-0.1 0.1-0.2 0.1zm-3.5-2.4c0.8 0.1 1.6-0.1 2.3-0.5 0.6-0.5 0.9-1.2 0.8-1.9v-1q0-0.1 0-0.2-0.1 0-0.2 0h-2.3c-0.8-0.1-1.6 0.1-2.3 0.4-0.5 0.3-0.8 0.9-0.8 1.5q0 1.7 2.5 1.7z"/>
		<path id="Path 4678" class="s0" d="m25.6 45.9q-0.1 0-0.2-0.1-0.1-0.1-0.1-0.2v-2.4q0-0.1 0.1-0.2 0.1-0.1 0.2-0.1h0.7c0.4 0.1 0.9 0 1.2-0.3 0.3-0.4 0.5-0.9 0.4-1.3v-14.6q0-0.1 0.1-0.2 0.1-0.1 0.2-0.1h2.7q0.2 0 0.2 0.1 0.1 0.1 0.1 0.2v14.5q0 2.5-1.2 3.6-1.2 1.1-3.5 1.1z"/>
		<path id="Path 4679" class="s0" d="m50.9 40.6q-0.2 0-0.3-0.1-0.1-0.1 0-0.2v-8.2c0-0.8-0.2-1.6-0.7-2.2-0.5-0.6-1.3-0.9-2-0.9-0.8 0-1.5 0.3-2 0.9-0.5 0.6-0.8 1.4-0.7 2.2v8.2q0 0.1-0.1 0.2-0.1 0.1-0.2 0.1h-2.7q-0.1 0-0.2-0.1-0.1-0.1-0.1-0.2v-8.2c0-0.8-0.2-1.6-0.7-2.2-0.5-0.6-1.2-0.9-2-0.9-0.8 0-1.5 0.3-2 0.9-0.5 0.6-0.7 1.4-0.7 2.2v8.2q0 0.1-0.1 0.2-0.1 0.1-0.2 0.1h-2.7q-0.1 0-0.2-0.1-0.1-0.1-0.1-0.2v-13.6q0-0.1 0.1-0.2 0.1-0.1 0.2-0.1h2.7q0.1 0 0.2 0.1 0.1 0.1 0.1 0.2v1q0.6-0.7 1.4-1.1c1.5-0.7 3.1-0.7 4.6 0 0.6 0.3 1.2 0.8 1.6 1.4h0.1q0.8-0.9 1.9-1.4 1.2-0.5 2.6-0.5 1.1 0 2.2 0.4 0.9 0.4 1.6 1.1 0.7 0.7 1 1.7 0.3 1 0.3 2.1v9q0 0.1 0 0.2-0.1 0.1-0.3 0z"/>
	</g>
</svg>