<svg version="1.2" xmlns="http://www.w3.org/2000/svg" viewBox="0 0 42 42" width="42" height="42">
	<title>New Project</title>
	<defs>
		<filter x="-50%" y="-50%" width="200%" height="200%" id="f1" ><feDropShadow dx="-1.8369701987210297e-16" dy="3" stdDeviation="2.916666666666667" flood-color="#000000" flood-opacity=".2"/></filter>
	</defs>
	<style>
		.s0 { filter: url(#f1);fill: #d6e6de } 
		.s1 { fill: #32835b } 
	</style>
	<path id="Ellipse 115" class="s0" d="m21 42c-11.6 0-21-9.4-21-21 0-11.6 9.4-21 21-21 11.6 0 21 9.4 21 21 0 11.6-9.4 21-21 21z"/>
	<path id="graph" class="s1" d="m16.4 22v6.5c0 0.6-0.5 1.1-1.1 1.1h-3.2c-0.6 0-1.1-0.5-1.1-1.1v-6.5c0-0.6 0.5-1.1 1.1-1.1h3.2c0.6 0 1.1 0.5 1.1 1.1zm7.3-2.5v9c0 0.6-0.5 1.1-1.1 1.1h-3.2c-0.6 0-1.1-0.5-1.1-1.1v-9c0-0.6 0.5-1.1 1.1-1.1h3.2c0.6 0 1.1 0.5 1.1 1.1zm7.3-6.1v15.1c0 0.6-0.5 1.1-1.1 1.1h-3.2c-0.6 0-1.1-0.5-1.1-1.1v-15c0-0.6 0.5-1.1 1.1-1.1h3.2c0.6 0 1.1 0.5 1.1 1z"/>
</svg>