<svg version="1.2" xmlns="http://www.w3.org/2000/svg" viewBox="0 0 29 27" width="29" height="27">
	<title>New Project</title>
	<style>
		.s0 { fill: #ffffff } 
		.s1 { fill: #c5534d;stroke: #c5534d } 
	</style>
	<g id="Group 3">
		<path id="bell" class="s0" d="m26.6 22.2h-26.2c2.6-2.1 4.5-3 4.5-10.7 0-6.7 3.6-9 7-9.5q0 0 0-0.1c0-0.8 0.7-1.5 1.6-1.5 0.9 0 1.7 0.7 1.7 1.5q0 0.1 0 0.1c3.3 0.5 6.9 2.8 6.9 9.4 0 7.8 1.9 8.7 4.5 10.8zm-16.6 1.5h7.1c-0.2 1.5-1.7 2.9-3.6 2.9-1.8 0-3.3-1.4-3.5-2.9z"/>
		<path id="Ellipse 2" class="s1" d="m22.5 26c-3.6 0-6.5-2.9-6.5-6.5 0-3.6 2.9-6.5 6.5-6.5 3.6 0 6.5 2.9 6.5 6.5 0 3.6-2.9 6.5-6.5 6.5z"/>
	</g>
</svg>