<svg version="1.2" xmlns="http://www.w3.org/2000/svg" viewBox="0 0 42 42" width="42" height="42">
	<title>New Project</title>
	<defs>
		<filter x="-50%" y="-50%" width="200%" height="200%" id="f1" ><feDropShadow dx="-1.8369701987210297e-16" dy="3" stdDeviation="2.916666666666667" flood-color="#000000" flood-opacity=".2"/></filter>
	</defs>
	<style>
		.s0 { filter: url(#f1);fill: #d6e6de } 
		.s1 { fill: #32835b } 
	</style>
	<path id="Ellipse 115" class="s0" d="m21 42c-11.6 0-21-9.4-21-21 0-11.6 9.4-21 21-21 11.6 0 21 9.4 21 21 0 11.6-9.4 21-21 21z"/>
	<path id="percentage" fill-rule="evenodd" class="s1" d="m30 13.7l-16.3 16.3c-0.5 0.5-1.2 0.5-1.7 0-0.5-0.5-0.5-1.2 0-1.7l16.3-16.3c0.5-0.5 1.2-0.5 1.7 0 0.5 0.5 0.5 1.2 0 1.7zm-17.5 2.3c0-1.9 1.6-3.5 3.5-3.5 2 0 3.6 1.6 3.6 3.5 0 2-1.6 3.6-3.6 3.6-1.9-0.1-3.5-1.6-3.5-3.6zm17 10c0 1.9-1.6 3.5-3.5 3.5-2 0-3.6-1.6-3.6-3.5 0-2 1.6-3.6 3.6-3.6 1.9 0.1 3.5 1.6 3.5 3.6zm-2.4 0c0-0.7-0.5-1.2-1.1-1.2-0.7 0-1.2 0.5-1.2 1.2 0 0.6 0.5 1.1 1.2 1.1 0.6 0 1.1-0.5 1.1-1.1zm-12.2-10c0 0.7 0.5 1.2 1.1 1.2 0.7 0 1.2-0.5 1.2-1.2 0-0.6-0.5-1.1-1.2-1.1-0.6 0-1.1 0.5-1.1 1.1z"/>
</svg>