<svg version="1.2" xmlns="http://www.w3.org/2000/svg" viewBox="0 0 13 17" width="13" height="17">
	<title>New Project</title>
	<style>
		.s0 { fill: #ffffff } 
	</style>
	<g id="User_avatar_icon">
		<path id="Path 1" fill-rule="evenodd" class="s0" d="m6.5 9c-2.3 0-4.2-1.9-4.2-4.2 0-2.3 1.9-4.2 4.2-4.2 2.3 0 4.2 1.9 4.2 4.2 0 2.3-1.9 4.2-4.2 4.2zm2.7-4.2c0-1.5-1.2-2.7-2.7-2.7-1.5 0-2.7 1.2-2.7 2.7 0 1.5 1.2 2.7 2.7 2.7 1.5 0 2.7-1.2 2.7-2.7z"/>
		<path id="Path 2" class="s0" d="m12.2 16.4c-0.5 0-0.8-0.3-0.8-0.7v-1.2c0-1.6-1.3-2.8-2.9-2.8h-4c-1.6 0-2.9 1.2-2.9 2.8v1.2c0 0.4-0.3 0.7-0.8 0.7-0.4 0-0.7-0.3-0.7-0.7v-1.2c0-2.4 2-4.3 4.4-4.3h4c2.4 0 4.4 1.9 4.4 4.3v1.2c0 0.4-0.3 0.7-0.7 0.7z"/>
	</g>
</svg>