<svg version="1.2" xmlns="http://www.w3.org/2000/svg" viewBox="0 0 19 19" width="19" height="19">
	<title>New Project</title>
	<style>
		.s0 { fill: #444444 } 
	</style>
	<path id="question" fill-rule="evenodd" class="s0" d="m0.3 9.1c0-5.1 4.1-9.2 9.2-9.2 5 0 9.1 4.1 9.1 9.2 0 5-4.1 9.1-9.1 9.1-5.1 0-9.2-4.1-9.2-9.1zm8.2 1.1c-0.1 0.6 0.4 1 0.9 1h0.4c0.3 0 0.5-0.2 0.5-0.5q0.1-0.7 0.6-1.2l0.6-0.6q0.7-0.7 0.9-1.2 0.3-0.6 0.3-1.2 0-1.4-0.8-2.1-0.9-0.8-2.4-0.8-1.5 0-2.3 0.8-0.5 0.5-0.8 1.2c-0.1 0.5 0.4 1 0.9 1 0.5 0 0.9-0.4 1.2-0.8q0.1 0 0.2-0.1 0.3-0.4 0.8-0.4 1.1 0 1.1 1.3 0 0.4-0.2 0.8-0.2 0.3-0.8 0.9-0.7 0.6-0.9 1.2-0.1 0.3-0.2 0.7zm0.1 2.4q-0.4 0.4-0.4 0.8 0 0.5 0.3 0.9 0.4 0.3 0.9 0.3 0.5 0 0.8-0.3 0.3-0.4 0.3-0.9 0-0.4-0.3-0.8-0.3-0.3-0.8-0.3-0.5 0-0.8 0.3z"/>
</svg>