<svg version="1.2" xmlns="http://www.w3.org/2000/svg" viewBox="0 0 38 45" width="38" height="45">
	<title>New Project</title>
	<style>
		.s0 { fill: #55565a } 
	</style>
	<path id="report" fill-rule="evenodd" class="s0" d="m37.1 42q0 0.2 0 0.4c0 1.1-0.7 2.1-1.8 2.5-0.5 0.1-1.1 0.1-1.7 0.1h-29.1c-0.5 0-0.9 0-1.3 0-1.3-0.2-2.3-1.3-2.3-2.6q0-0.1 0-0.3c0-0.1 0-38.7 0-38.8 0-0.9 0.5-1.8 1.3-2.3 0.7-0.4 1.5-0.3 2.3-0.3h20.6c0.2 0 0.4-0.1 0.6 0.1q0.2 0.2 0.5 0.5 1.3 1.3 2.6 2.6 1.8 1.8 3.6 3.6 1.6 1.6 3.2 3.2 0.7 0.7 1.4 1.4 0 0 0 0 0 0 0 0 0 0 0 0 0 0 0 0.1 0 0 0.1 0 0 0.1 0 0.3c0 0 0 29.5 0 29.5zm-6.2-6.3c0-0.5-0.4-0.9-0.9-0.9h-1c0 0 0-12.5 0-12.5q0-0.1 0-0.1 0 0-0.1-0.1 0-0.1 0-0.2-0.1 0-0.1-0.1 0-0.1-0.1-0.1-0.2-0.2-0.7-0.2h-3.2c-0.4 0-0.8 0.1-0.9 0.6q-0.1 0.1-0.1 0.3v10.6q0 0.9 0 1.8h-2c0 0 0-14.9 0-15q0 0 0 0 0-0.1 0-0.1 0 0 0 0-0.1-0.1-0.1-0.2 0 0 0 0 0 0 0-0.1-0.1 0-0.1 0 0-0.1 0-0.1-0.1 0-0.1 0 0 0 0-0.1 0 0 0 0-0.1 0-0.1 0-0.1-0.1-0.2-0.1 0 0 0 0-0.1-0.1-0.2-0.1-0.1 0-0.2 0c-0.1 0-1.4 0-1.4 0q-0.1 0-0.2 0-0.7 0-1.4 0 0 0-0.1 0-0.1 0-0.2 0-0.1 0-0.1 0-0.4 0.1-0.6 0.4 0 0 0 0 0 0 0 0 0 0.1-0.1 0.1 0 0 0 0.1 0 0 0 0 0 0 0 0.1 0 0 0 0.1 0 0-0.1 0.1 0.1 0.2 0.1 0.3c0 0.1 0 12.6 0 12.6q0 0 0 0.1 0 0 0 0 0 0 0 0.1 0 0 0 0 0 0 0 0.1 0 0.1 0 0.1 0 0.2-0.1 0.3 0 0.3 0 0.7 0 0.2 0 0.3 0 0.1 0 0.2v0.1h-1.9v-9.3q0 0 0 0 0 0 0 0 0 0 0-0.1 0 0-0.1-0.1-0.1-0.4-0.5-0.6 0 0-0.1 0 0 0 0 0 0 0-0.1 0 0 0 0 0 0-0.1 0-0.1-0.1 0-0.1 0-0.3 0-0.6 0h-2c-0.6 0-1.3-0.1-1.6 0.5-0.1 0.2-0.1 0.6-0.1 0.8v8.9h-1.5c-0.5 0-0.9 0.4-0.9 0.9 0 0.5 0.4 1 0.9 1h22c0.5 0 0.9-0.5 0.9-1zm3-23.7q-2.9-3-5.8-5.9-1.1-1.1-2.2-2.2-0.1 1-0.1 1.9c0 0.1 0 4.7 0 4.8q0 0.1 0 0.2 0 0 0 0.1 0 0 0 0 0 0 0 0 0 0 0 0.1c0.1 0 0.1 0.1 0.1 0.1q0 0 0 0.1 0 0 0 0 0 0.1 0 0.1c0.1 0 0.1 0.1 0.1 0.1q0 0 0.1 0.1 0 0 0 0 0 0 0 0 0.1 0.1 0.1 0.1c0 0 0.1 0.1 0.1 0.1q0.1 0.1 0.1 0.1 0.1 0 0.1 0.1 0.1 0 0.1 0 0 0 0 0c-0.2 0 0 0 0.1 0q0.1 0 0.2 0.1 0 0 0.1 0 0 0 0.1 0c0.2 0 6.6 0 6.8 0z"/>
</svg>