<svg version="1.2" xmlns="http://www.w3.org/2000/svg" viewBox="0 0 20 21" width="20" height="21">
	<title>New Project</title>
	<style>
		.s0 { fill: #ebebeb;stroke: #707070 } 
		.s1 { fill: none } 
		.s2 { fill: #55565a } 
	</style>
	<path id="Ellipse 179" class="s0" d="m10 20.8c-5.5 0-10-4.4-10-10 0-5.5 4.5-10 10-10 5.5 0 10 4.5 10 10 0 5.6-4.5 10-10 10z"/>
	<g id="report">
		<path id="Path 6456" class="s1" d="m11.7 8.6v-1l1.2 1.2h-1c-0.1 0-0.2-0.1-0.2-0.2z"/>
		<path id="Path 6457" fill-rule="evenodd" class="s1" d="m13.4 9.5v5.5c0 0.1-0.1 0.2-0.2 0.2h-6.3c-0.1 0-0.2-0.1-0.2-0.2v-7.7c0-0.1 0.1-0.2 0.2-0.2l4.1 0.1v1.4c0 0.5 0.4 0.9 0.9 0.9zm-5.4 1.5c-0.2 0-0.4 0.1-0.4 0.4 0 0.2 0.2 0.3 0.4 0.3h3.2c0.2 0 0.4-0.1 0.4-0.3 0-0.3-0.2-0.4-0.4-0.4zm-0.4-1.1c0 0.2 0.2 0.3 0.4 0.3h2.2c0.2 0 0.3-0.1 0.3-0.3 0-0.2-0.1-0.4-0.3-0.4h-2.2c-0.2 0-0.4 0.2-0.4 0.4zm5 2.9c0-0.2-0.2-0.3-0.4-0.3h-4.2c-0.2 0-0.3 0.1-0.3 0.3 0 0.2 0.1 0.4 0.3 0.4h4.2c0.2 0 0.4-0.2 0.4-0.4z"/>
		<path id="Path 6458" fill-rule="evenodd" class="s2" d="m14.1 9.3v5.7c0 0.5-0.4 0.9-0.9 0.9h-6.3c-0.5 0-0.9-0.4-0.9-0.9v-7.7c0-0.5 0.4-0.9 0.9-0.9h4.3q0.3 0 0.5 0.2l2.3 2.2q0.1 0.2 0.1 0.5zm-0.7 5.7v-5.5h-1.5c-0.5 0-0.9-0.4-0.9-0.9v-1.4l-4.1-0.1c-0.1 0-0.2 0.1-0.2 0.2v7.7c0 0.1 0.1 0.2 0.2 0.2h6.3c0.1 0 0.2-0.1 0.2-0.2zm-1.7-6.4c0 0.1 0.1 0.2 0.2 0.2h1l-1.2-1.2z"/>
		<path id="Path 6459" class="s2" d="m8 11h3.2c0.2 0 0.4 0.1 0.4 0.4 0 0.2-0.2 0.3-0.4 0.3h-3.2c-0.2 0-0.4-0.1-0.4-0.3 0-0.3 0.2-0.4 0.4-0.4zm-0.4-1.1c0-0.2 0.2-0.4 0.4-0.4h2.1c0.2 0 0.4 0.2 0.4 0.4 0 0.2-0.2 0.3-0.4 0.3h-2.1c-0.2 0-0.4-0.1-0.4-0.3zm4.9 2.9c0 0.2-0.1 0.4-0.3 0.4h-4.2c-0.2 0-0.4-0.2-0.4-0.4 0-0.2 0.2-0.3 0.4-0.3h4.2c0.2 0 0.3 0.1 0.3 0.3z"/>
	</g>
</svg>