<svg version="1.2" xmlns="http://www.w3.org/2000/svg" viewBox="0 0 20 15" width="20" height="15">
	<title>New Project</title>
	<style>
		.s0 { fill: #3e3e3e } 
	</style>
	<path id="right-arrow" class="s0" d="m13.1 0.7l6.1 6.1h0.1v0.1q0 0 0 0 0.1 0.1 0.1 0.1 0 0.1 0 0.1 0.1 0.1 0.1 0.1 0 0.2 0 0.4v0.1q0 0 0 0 0 0.1 0 0.1h-0.1q0 0.1 0 0.1 0 0.1 0 0.1-0.1 0-0.1 0.1h-0.1l-6.1 6.1c-0.8 1-2.2-0.4-1.3-1.3l4.6-4.5h-15c-1.2 0-1.2-1.8 0-1.8h15l-4.6-4.6c-0.5-0.5-0.2-1.6 0.7-1.6 0.2 0 0.5 0.1 0.6 0.3z"/>
</svg>