<svg version="1.2" xmlns="http://www.w3.org/2000/svg" viewBox="0 0 56 54" width="56" height="54">
	<title>New Project</title>
	<defs>
		<filter x="-50%" y="-50%" width="200%" height="200%" id="f1" ><feDropShadow dx="-1.8369701987210297e-16" dy="3" stdDeviation="2.916666666666667" flood-color="#000000" flood-opacity=".2"/></filter>
	</defs>
	<style>
		.s0 { filter: url(#f1);fill: #d6e6de } 
		.s1 { fill: #32835b } 
	</style>
	<path id="Ellipse 115" class="s0" d="m28 45c-11.6 0-21-9.4-21-21 0-11.6 9.4-21 21-21 11.6 0 21 9.4 21 21 0 11.6-9.4 21-21 21z"/>
	<g id="Group 4175">
		<path id="Path 6311" fill-rule="evenodd" class="s1" d="m32.6 27.6q0.2 0.2 0.6 0.2h1.3c-0.2 1.7-0.9 3.3-2.1 4.5-1.2 1.2-2.8 2-4.5 2.2v-1.3c0-0.3-0.2-0.6-0.5-0.8-0.2-0.1-0.6-0.1-0.8 0-0.3 0.2-0.5 0.5-0.5 0.8v1.3c-1.7-0.2-3.3-1-4.5-2.2-1.2-1.2-1.9-2.8-2.1-4.5h1.3q0.4 0 0.6-0.2 0.3-0.3 0.3-0.6 0-0.4-0.3-0.6-0.2-0.3-0.6-0.3h-1.3c0.3-2.5 1.7-4.7 4-5.8 2.2-1.2 4.8-1.2 7 0 2.2 1.1 3.7 3.3 4 5.8h-1.3q-0.4 0-0.6 0.3-0.3 0.2-0.3 0.6 0 0.3 0.3 0.6zm-4.4 0.2c0.3-0.4 0.3-1 0.1-1.4-0.2-0.4-0.6-0.8-1.1-0.8l-2.3-3.1c-0.1-0.2-0.5-0.3-0.7-0.1-0.3 0.1-0.4 0.4-0.3 0.7l1.7 3.4c-0.1 0.5 0 1 0.2 1.3 0.3 0.4 0.7 0.6 1.2 0.6 0.5 0 0.9-0.2 1.2-0.6z"/>
		<path id="Path 6312" fill-rule="evenodd" class="s1" d="m35.9 19.4c2 2.3 2.9 5.2 2.8 8.2-0.2 3-1.5 5.8-3.7 7.9-2.1 2-5 3.2-8 3.2-3 0-5.9-1.2-8-3.2-2.2-2.1-3.5-4.9-3.7-7.9-0.1-3 0.8-5.9 2.8-8.2 1.9-2.3 4.7-3.7 7.6-4v-2.1h-0.8c-0.3 0-0.6-0.1-0.8-0.3-0.2-0.3-0.3-0.6-0.3-0.9 0-0.3 0.1-0.6 0.3-0.8 0.2-0.2 0.5-0.3 0.8-0.3h4.2c0.4 0 0.8 0.2 1 0.6 0.2 0.3 0.2 0.8 0 1.1-0.2 0.4-0.6 0.6-1 0.6h-0.8v2.1c3 0.3 5.7 1.7 7.6 4zm-2 14.5c1.8-1.9 2.8-4.3 2.9-6.9 0-2.6-1.1-5.1-2.9-6.9-1.8-1.8-4.3-2.9-6.9-2.9-2.6 0-5.1 1.1-6.9 2.9-1.8 1.8-2.9 4.3-2.9 6.9 0 2.6 1.1 5 2.9 6.9 1.8 1.8 4.3 2.8 6.9 2.8 2.6 0 5.1-1 6.9-2.8z"/>
	</g>
</svg>