<svg version="1.2" xmlns="http://www.w3.org/2000/svg" viewBox="0 0 42 42" width="42" height="42">
	<title>New Project</title>
	<defs>
		<filter x="-50%" y="-50%" width="200%" height="200%" id="f1" ><feDropShadow dx="-1.8369701987210297e-16" dy="3" stdDeviation="2.916666666666667" flood-color="#000000" flood-opacity=".2"/></filter>
	</defs>
	<style>
		.s0 { filter: url(#f1);fill: #d6e6de } 
		.s1 { fill: #34835c } 
	</style>
	<path id="Ellipse 115" class="s0" d="m21 42c-11.6 0-21-9.4-21-21 0-11.6 9.4-21 21-21 11.6 0 21 9.4 21 21 0 11.6-9.4 21-21 21z"/>
	<g id="Group 4604">
		<path id="Path 6462" class="s1" d="m27.4 25.4l0.4 3.8c0.1 0.6-0.3 1-0.7 1.1q-2.9 0.6-6.1 0.6-3.2 0-6-0.6c-0.6-0.1-0.9-0.6-0.8-1.1l0.4-3.8c0.3-2.4 2.3-4.2 4.7-4.2h3.4c2.4 0 4.4 1.8 4.7 4.2z"/>
		<path id="Path 6463" class="s1" d="m25.5 15.5c0 2.5-2 4.5-4.5 4.5-2.5 0-4.5-2-4.5-4.5 0-2.4 2-4.4 4.5-4.4 2.5 0 4.5 2 4.5 4.4z"/>
	</g>
</svg>