<svg version="1.2" xmlns="http://www.w3.org/2000/svg" viewBox="0 0 39 36" width="39" height="36">
	<title>New Project</title>
	<defs>
		<filter x="-50%" y="-50%" width="200%" height="200%" id="f1" ><feDropShadow dx="-1.8369701987210297e-16" dy="3" stdDeviation="2.916666666666667" flood-color="#000000" flood-opacity=".2"/></filter>
	</defs>
	<style>
		.s0 { filter: url(#f1);fill: #32835b;stroke: #32835b } 
		.s1 { fill: #ffffff } 
	</style>
	<path id="Ellipse 1" class="s0" d="m19.5 35c-9.1 0-16.5-7.4-16.5-16.5 0-9.1 7.4-16.5 16.5-16.5 9.1 0 16.5 7.4 16.5 16.5 0 9.1-7.4 16.5-16.5 16.5z"/>
	<g id="User_avatar_icon">
		<path id="Path 1" fill-rule="evenodd" class="s1" d="m19.5 19c-2.3 0-4.2-1.9-4.2-4.2 0-2.3 1.9-4.2 4.2-4.2 2.3 0 4.2 1.9 4.2 4.2 0 2.3-1.9 4.2-4.2 4.2zm0-6.9c-1.5 0-2.7 1.2-2.7 2.7 0 1.5 1.2 2.7 2.7 2.7 1.5 0 2.7-1.2 2.7-2.7 0-1.5-1.2-2.7-2.7-2.7z"/>
		<path id="Path 2" class="s1" d="m25.2 26.4c-0.5 0-0.8-0.3-0.8-0.7v-1.2c0-1.6-1.3-2.8-2.9-2.8h-4c-1.6 0-2.9 1.2-2.9 2.8v1.2c0 0.4-0.3 0.7-0.8 0.7-0.4 0-0.7-0.3-0.7-0.7v-1.2c0-2.4 2-4.3 4.4-4.3h4c2.4 0 4.4 1.9 4.4 4.3v1.2c0 0.4-0.3 0.7-0.7 0.7z"/>
	</g>
</svg>