<svg version="1.2" xmlns="http://www.w3.org/2000/svg" viewBox="0 0 28 28" width="28" height="28">
	<title>New Project</title>
	<style>
		.s0 { fill: #ffffff } 
	</style>
	<g id="Layer 3">
		<path id="Path 4683" class="s0" d="m26.6 13.1c-0.6 0-1.2-0.4-1.3-1.1-0.7-4.9-4.6-8.8-9.5-9.5-0.7-0.1-1.2-0.8-1.1-1.5 0.1-0.7 0.7-1.2 1.4-1.1 6.1 0.9 10.9 5.7 11.7 11.8 0.1 0.3 0 0.7-0.2 0.9-0.2 0.3-0.5 0.5-0.9 0.5zm-14.2 14.2h-0.2c-6.1-0.8-10.8-5.6-11.7-11.7-0.1-0.7 0.4-1.3 1.1-1.4 0.7-0.1 1.3 0.4 1.4 1.1 0.7 4.9 4.6 8.8 9.6 9.6 0.7 0 1.2 0.6 1.2 1.3-0.1 0.7-0.7 1.2-1.4 1.2z"/>
		<path id="Path 4684" fill-rule="evenodd" class="s0" d="m21.3 20.8c-4 3.9-10.3 3.9-14.3 0-3.9-4-3.9-10.3 0-14.3 4-3.9 10.3-3.9 14.3 0 3.9 4 3.9 10.3 0 14.3zm-2.5-6c0.4-0.2 0.6-0.7 0.6-1.1 0-0.5-0.2-0.9-0.6-1.2l-6.6-3.2c-0.3-0.2-0.8-0.2-1.2 0-0.4 0.3-0.6 0.7-0.6 1.1v6.5c0 0.4 0.2 0.8 0.6 1.1 0.4 0.2 0.9 0.2 1.2 0l6.6-3.2z"/>
	</g>
</svg>